<?xml version="1.0" encoding="UTF-8" standalone="no"?>
<!-- Created with Inkscape (http://www.inkscape.org/) -->

<svg
   xmlns:dc="http://purl.org/dc/elements/1.1/"
   xmlns:cc="http://creativecommons.org/ns#"
   xmlns:rdf="http://www.w3.org/1999/02/22-rdf-syntax-ns#"
   xmlns:svg="http://www.w3.org/2000/svg"
   xmlns="http://www.w3.org/2000/svg"
   xmlns:sodipodi="http://sodipodi.sourceforge.net/DTD/sodipodi-0.dtd"
   xmlns:inkscape="http://www.inkscape.org/namespaces/inkscape"
   width="32mm"
   height="32mm"
   viewBox="0 0 32 32"
   version="1.1"
   id="svg8"
   inkscape:version="0.92.1 r"
   sodipodi:docname="icon_telegrem.svg"
   inkscape:export-filename="/home/francesco/Projects/go/src/github.com/frapa/electrum/icons/icon_telegrem.png"
   inkscape:export-xdpi="203.2"
   inkscape:export-ydpi="203.2">
  <defs
     id="defs2">
    <marker
       inkscape:stockid="Arrow1Mend"
       orient="auto"
       refY="0.0"
       refX="0.0"
       id="Arrow1Mend"
       style="overflow:visible;"
       inkscape:isstock="true">
      <path
         id="path4523"
         d="M 0.0,0.0 L 5.0,-5.0 L -12.5,0.0 L 5.0,5.0 L 0.0,0.0 z "
         style="fill-rule:evenodd;stroke:#ffffff;stroke-width:1pt;stroke-opacity:1;fill:#ffffff;fill-opacity:1"
         transform="scale(0.4) rotate(180) translate(10,0)" />
    </marker>
    <marker
       inkscape:stockid="Arrow1Lend"
       orient="auto"
       refY="0.0"
       refX="0.0"
       id="Arrow1Lend"
       style="overflow:visible;"
       inkscape:isstock="true">
      <path
         id="path4517"
         d="M 0.0,0.0 L 5.0,-5.0 L -12.5,0.0 L 5.0,5.0 L 0.0,0.0 z "
         style="fill-rule:evenodd;stroke:#000000;stroke-width:1pt;stroke-opacity:1;fill:#000000;fill-opacity:1"
         transform="scale(0.8) rotate(180) translate(12.5,0)" />
    </marker>
  </defs>
  <sodipodi:namedview
     id="base"
     pagecolor="#ffffff"
     bordercolor="#666666"
     borderopacity="1.0"
     inkscape:pageopacity="0.0"
     inkscape:pageshadow="2"
     inkscape:zoom="2.5920898"
     inkscape:cx="-28.45657"
     inkscape:cy="26.503352"
     inkscape:document-units="mm"
     inkscape:current-layer="layer1"
     showgrid="true"
     inkscape:snap-grids="false"
     inkscape:window-width="1920"
     inkscape:window-height="1052"
     inkscape:window-x="0"
     inkscape:window-y="28"
     inkscape:window-maximized="1">
    <inkscape:grid
       type="xygrid"
       id="grid4485"
       units="mm"
       spacingx="0.99999997"
       spacingy="0.99999997" />
  </sodipodi:namedview>
  <metadata
     id="metadata5">
    <rdf:RDF>
      <cc:Work
         rdf:about="">
        <dc:format>image/svg+xml</dc:format>
        <dc:type
           rdf:resource="http://purl.org/dc/dcmitype/StillImage" />
        <dc:title />
      </cc:Work>
    </rdf:RDF>
  </metadata>
  <g
     inkscape:label="Ebene 1"
     inkscape:groupmode="layer"
     id="layer1"
     transform="translate(0,-265)">
    <rect
       style="opacity:1;fill:#517da2;fill-opacity:1;fill-rule:evenodd;stroke:none;stroke-width:0.2141201;stroke-linecap:round;stroke-linejoin:miter;stroke-miterlimit:4;stroke-dasharray:none;stroke-dashoffset:0;stroke-opacity:1"
       id="rect4513"
       width="32"
       height="32"
       x="0"
       y="265" />
    <g
       id="g4524"
       transform="matrix(1.2906854,0,0,1.2906854,-2.436923,-81.098917)">
      <flowRoot
         style="font-style:normal;font-weight:normal;font-size:7.5px;line-height:125%;font-family:sans-serif;letter-spacing:0px;word-spacing:0px;fill:#000000;fill-opacity:1;stroke:#fffbfb;stroke-width:1px;stroke-linecap:butt;stroke-linejoin:miter;stroke-opacity:1"
         id="flowRoot4491"
         xml:space="preserve"><flowRegion
           style="stroke:#fffbfb;stroke-opacity:1"
           id="flowRegion4493"><rect
             style="stroke:#fffbfb;stroke-opacity:1"
             y="-3.7795205"
             x="15.11811"
             height="45.354328"
             width="52.913383"
             id="rect4495" /></flowRegion><flowPara
           id="flowPara4497" /></flowRoot>      <path
         inkscape:connector-curvature="0"
         id="path4512"
         d="M 6.8528858,284.31339 21.292202,274.31694"
         style="fill:none;fill-opacity:1;fill-rule:evenodd;stroke:#fffbfb;stroke-width:0.294;stroke-linecap:butt;stroke-linejoin:miter;stroke-miterlimit:4;stroke-dasharray:none;stroke-opacity:1;marker-end:url(#Arrow1Mend)" />
      <path
         inkscape:connector-curvature="0"
         id="path4822"
         d="m 10.868077,281.33888 -0.314868,-0.97085 -0.472302,-0.89212 -0.1574345,-1.44316 0.8396485,-0.76093 0.603498,-0.65597 0.760932,-0.49854 0.288629,0.49854 -0.183673,1.23323 -0.629736,0.7347 -0.419826,0.20991 0.183674,1.31195 0.367346,0.83964 z"
         style="fill:#ffffff;fill-opacity:1;fill-rule:evenodd;stroke:#fffbfb;stroke-width:0.29387712px;stroke-linecap:butt;stroke-linejoin:miter;stroke-opacity:1" />
      <path
         inkscape:connector-curvature="0"
         id="path4824"
         d="m 12.127551,276.11731 0.498541,-0.44606 1.259474,0.0525 1.206995,0.6035 0.839649,-0.41983 0.760932,0.18367 0.419824,1.39067 -0.472302,1.28571 -0.341108,1.36444 1.023322,1.96792 0.05248,0.91837 -1.416908,0.36734 -1.889209,0.18368 -1.679299,-0.26239 0.419825,-2.46647 0.367346,-1.207 -0.944605,-1.78425 0.183673,-1.23323 z"
         style="fill:#ffffff;fill-opacity:1;fill-rule:evenodd;stroke:#fffbfb;stroke-width:0.29387712px;stroke-linecap:butt;stroke-linejoin:miter;stroke-opacity:1" />
      <path
         inkscape:connector-curvature="0"
         id="path4826"
         d="m 12.914721,283.41175 0.970845,1.41691 -1.128279,0.68223 -0.629736,1.12827 -0.52478,1.31195 -0.55102,0.89213 0.970844,0.65597 0.52478,0.97085 0.787171,-0.0262 -0.183673,-0.65596 -0.682215,-1.23324 0.787171,-0.91837 1.206995,-1.73177 0.760932,-0.97084 0.07872,-1.02333 1.049561,0.97085 -0.603498,2.0204 0.393586,1.39067 0.183674,1.62681 3.253639,0.18368 -2.282795,-1.15452 0.183672,-1.02331 0.472303,-3.0175 0.05248,-0.62973 -0.629733,-1.25942 -2.51895,0.55097 z"
         style="fill:#ffffff;fill-opacity:1;fill-rule:evenodd;stroke:#fffbfb;stroke-width:0.29387712px;stroke-linecap:butt;stroke-linejoin:miter;stroke-opacity:1" />
      <path
         inkscape:connector-curvature="0"
         id="path4828"
         d="m 17.112966,277.48179 0.314868,1.10199 1.128279,-0.23615 0.367346,-0.55103 0.81341,0.3936 -0.209912,0.8134 -0.655976,0.0525 -0.734693,0.4723 -1.206994,0.0788 -0.31487,-0.18368 z"
         style="fill:#ffffff;fill-opacity:1;fill-rule:evenodd;stroke:#fffbfb;stroke-width:0.29387712px;stroke-linecap:butt;stroke-linejoin:miter;stroke-opacity:1" />
      <path
         inkscape:connector-curvature="0"
         id="path4830"
         d="m 16.693142,276.09112 0.446063,-0.39364 1.233235,-0.23615 1.023322,0.41983 0.865887,1.02331 0.367346,1.07581 0.104952,1.207 -0.209913,0.49854 -0.787171,1.0758 -0.970844,0.4723 -0.682214,0.20991 -1.0758,-0.15743 -1.259474,-0.97085 z"
         style="fill:#ffffff;fill-opacity:1;fill-rule:evenodd;stroke:#fffbfb;stroke-width:0.29387712px;stroke-linecap:butt;stroke-linejoin:miter;stroke-opacity:1" />
      <path
         inkscape:connector-curvature="0"
         id="path4832"
         d="m 13.885566,275.72378 0.131195,-1.12834 -0.367347,-0.6035 -0.498541,0.20992 0.472302,-0.81341 -0.629736,-0.41982 0.05248,-0.99709 0.892127,-0.57725 1.180756,0.31486 0.236152,0.15744 1.731776,0.26238 -0.892128,0.41983 0.314869,1.28571 -0.314869,0.39359 -0.288628,1.02332 -0.708454,0.0262 -0.104952,1.04963 v 0 z"
         style="fill:#ffffff;fill-opacity:1;fill-rule:evenodd;stroke:#fffbfb;stroke-width:0.29387712px;stroke-linecap:butt;stroke-linejoin:miter;stroke-opacity:1" />
      <path
         inkscape:connector-curvature="0"
         id="path4834"
         d="m 12.258745,274.96279 0.209913,-0.57725 -0.314869,-1.15453 -0.393584,-0.86588 0.183672,-0.99709 1.154518,-0.49853 0.551019,-0.20992 0.190233,0.36735 -0.734692,0.19679 -0.505102,0.41982 -0.183673,0.56415 0.229591,0.54445 0.387026,0.61006 0.01312,0.48542 -0.163994,0.76094 z"
         style="fill:#ffffff;fill-opacity:1;fill-rule:evenodd;stroke:#fffbfb;stroke-width:0.29387712px;stroke-linecap:butt;stroke-linejoin:miter;stroke-opacity:1" />
    </g>
  </g>
</svg>
