<?xml version="1.0" encoding="UTF-8" standalone="no"?>
<!-- Created with Inkscape (http://www.inkscape.org/) -->

<svg
   xmlns:dc="http://purl.org/dc/elements/1.1/"
   xmlns:cc="http://creativecommons.org/ns#"
   xmlns:rdf="http://www.w3.org/1999/02/22-rdf-syntax-ns#"
   xmlns:svg="http://www.w3.org/2000/svg"
   xmlns="http://www.w3.org/2000/svg"
   xmlns:sodipodi="http://sodipodi.sourceforge.net/DTD/sodipodi-0.dtd"
   xmlns:inkscape="http://www.inkscape.org/namespaces/inkscape"
   width="32mm"
   height="32mm"
   viewBox="0 0 32 32"
   version="1.1"
   id="svg8"
   inkscape:version="0.92.1 r"
   sodipodi:docname="icon.svg"
   inkscape:export-filename="/home/francesco/Projects/Android/Electrum/app/src/main/res/mipmap-mdpi/icon.png"
   inkscape:export-xdpi="38.099998"
   inkscape:export-ydpi="38.099998">
  <defs
     id="defs2">
    <marker
       inkscape:stockid="Arrow1Mend"
       orient="auto"
       refY="0.0"
       refX="0.0"
       id="Arrow1Mend"
       style="overflow:visible;"
       inkscape:isstock="true">
      <path
         id="path4523"
         d="M 0.0,0.0 L 5.0,-5.0 L -12.5,0.0 L 5.0,5.0 L 0.0,0.0 z "
         style="fill-rule:evenodd;stroke:#000000;stroke-width:1pt;stroke-opacity:1;fill:#000000;fill-opacity:1"
         transform="scale(0.4) rotate(180) translate(10,0)" />
    </marker>
    <marker
       inkscape:stockid="Arrow1Lend"
       orient="auto"
       refY="0.0"
       refX="0.0"
       id="Arrow1Lend"
       style="overflow:visible;"
       inkscape:isstock="true">
      <path
         id="path4517"
         d="M 0.0,0.0 L 5.0,-5.0 L -12.5,0.0 L 5.0,5.0 L 0.0,0.0 z "
         style="fill-rule:evenodd;stroke:#000000;stroke-width:1pt;stroke-opacity:1;fill:#000000;fill-opacity:1"
         transform="scale(0.8) rotate(180) translate(12.5,0)" />
    </marker>
  </defs>
  <sodipodi:namedview
     id="base"
     pagecolor="#ffffff"
     bordercolor="#666666"
     borderopacity="1.0"
     inkscape:pageopacity="0.0"
     inkscape:pageshadow="2"
     inkscape:zoom="2.5920898"
     inkscape:cx="-10.148077"
     inkscape:cy="-5.4186192"
     inkscape:document-units="mm"
     inkscape:current-layer="layer1"
     showgrid="true"
     inkscape:snap-grids="false"
     inkscape:window-width="1920"
     inkscape:window-height="1052"
     inkscape:window-x="0"
     inkscape:window-y="28"
     inkscape:window-maximized="1">
    <inkscape:grid
       type="xygrid"
       id="grid4485"
       units="mm"
       spacingx="0.99999997"
       spacingy="0.99999997" />
  </sodipodi:namedview>
  <metadata
     id="metadata5">
    <rdf:RDF>
      <cc:Work
         rdf:about="">
        <dc:format>image/svg+xml</dc:format>
        <dc:type
           rdf:resource="http://purl.org/dc/dcmitype/StillImage" />
        <dc:title></dc:title>
      </cc:Work>
    </rdf:RDF>
  </metadata>
  <g
     inkscape:label="Ebene 1"
     inkscape:groupmode="layer"
     id="layer1"
     transform="translate(0,-265)">
    <path
       style="fill:#ede2b9;fill-rule:evenodd;stroke:#000000;stroke-width:0.26458332px;stroke-linecap:butt;stroke-linejoin:miter;stroke-opacity:1;fill-opacity:1"
       d="m 1.9605653,280.32292 c 0.5640921,-3.56115 3.5090109,-7.85943 6.9449403,-10.03944 3.4241224,-2.17252 8.1987514,-3.41243 11.9999994,-2 4.142086,1.53908 7.78032,5.826 8.480282,10.18899 0.732609,4.56649 -1.558243,9.92482 -5.094493,12.90551 -3.151082,2.65602 -8.007812,3.24404 -12.102307,2.52753 C 6.5609877,292.92063 1.0550595,286.03944 1.9605653,280.32292 Z"
       id="path4510"
       inkscape:connector-curvature="0"
       sodipodi:nodetypes="saaaass" />
    <flowRoot
       xml:space="preserve"
       id="flowRoot4491"
       style="fill:black;stroke:none;stroke-opacity:1;stroke-width:1px;stroke-linejoin:miter;stroke-linecap:butt;fill-opacity:1;font-family:sans-serif;font-style:normal;font-weight:normal;font-size:7.5px;line-height:125%;letter-spacing:0px;word-spacing:0px"><flowRegion
         id="flowRegion4493"><rect
           id="rect4495"
           width="52.913383"
           height="45.354328"
           x="15.11811"
           y="-3.7795205" /></flowRegion><flowPara
         id="flowPara4497"></flowPara></flowRoot>    <g
       id="g4844"
       transform="matrix(1.1107167,0,0,1.1107167,-2.5000049,-32.907832)">
      <path
         inkscape:connector-curvature="0"
         id="path4512"
         d="M 8.9999996,286 21.999999,277"
         style="fill:none;fill-rule:evenodd;stroke:#000000;stroke-width:0.26499999;stroke-linecap:butt;stroke-linejoin:miter;stroke-miterlimit:4;stroke-dasharray:none;stroke-opacity:1;marker-end:url(#Arrow1Mend)" />
      <path
         inkscape:connector-curvature="0"
         id="path4822"
         d="m 12.614955,283.32199 -0.283482,-0.87407 -0.425223,-0.8032 -0.141741,-1.2993 0.755952,-0.68508 0.543341,-0.59058 0.685082,-0.44885 0.259858,0.44885 -0.165364,1.1103 -0.566964,0.66146 -0.377977,0.18899 0.165365,1.18117 0.330729,0.75595 z"
         style="fill:#000000;fill-opacity:1;fill-rule:evenodd;stroke:#000000;stroke-width:0.26458332px;stroke-linecap:butt;stroke-linejoin:miter;stroke-opacity:1" />
      <path
         inkscape:connector-curvature="0"
         id="path4824"
         d="m 13.748884,278.62091 0.448846,-0.4016 1.133929,0.0473 1.086682,0.54334 0.755952,-0.37798 0.685082,0.16536 0.377976,1.25205 -0.425223,1.15755 -0.307106,1.22843 0.921317,1.77176 0.04725,0.82682 -1.27567,0.33073 -1.700892,0.16537 -1.511905,-0.23624 0.377976,-2.22061 0.330729,-1.08668 -0.850446,-1.6064 0.165364,-1.1103 z"
         style="fill:#000000;fill-opacity:1;fill-rule:evenodd;stroke:#000000;stroke-width:0.26458332px;stroke-linecap:butt;stroke-linejoin:miter;stroke-opacity:1" />
      <path
         inkscape:connector-curvature="0"
         id="path4826"
         d="m 14.457589,285.18824 0.87407,1.27567 -1.015811,0.61422 -0.566964,1.01581 -0.47247,1.18117 -0.496094,0.8032 0.87407,0.59059 0.47247,0.87407 0.708705,-0.0236 -0.165364,-0.59058 -0.614212,-1.11031 0.708706,-0.82682 1.086681,-1.55915 0.685082,-0.87407 0.07087,-0.92132 0.94494,0.87407 -0.543341,1.81901 0.354353,1.25205 0.165365,1.46465 2.929315,0.16537 -2.055245,-1.03944 0.165364,-0.92131 0.425223,-2.71671 0.04725,-0.56696 -0.566961,-1.13388 -2.26786,0.49605 z"
         style="fill:#000000;fill-opacity:1;fill-rule:evenodd;stroke:#000000;stroke-width:0.26458332px;stroke-linecap:butt;stroke-linejoin:miter;stroke-opacity:1" />
      <path
         inkscape:connector-curvature="0"
         id="path4828"
         d="m 18.237351,279.84938 0.283482,0.99214 1.015811,-0.21261 0.330729,-0.4961 0.732329,0.35436 -0.188988,0.73232 -0.590588,0.0473 -0.661458,0.42522 -1.086681,0.0709 -0.283483,-0.16537 z"
         style="fill:#000000;fill-opacity:1;fill-rule:evenodd;stroke:#000000;stroke-width:0.26458332px;stroke-linecap:butt;stroke-linejoin:miter;stroke-opacity:1" />
      <path
         inkscape:connector-curvature="0"
         id="path4830"
         d="m 17.859375,278.59733 0.401599,-0.3544 1.110306,-0.21261 0.921317,0.37798 0.779575,0.92131 0.330729,0.96857 0.09449,1.08668 -0.188989,0.44885 -0.708705,0.96856 -0.87407,0.42522 -0.614211,0.18899 -0.968564,-0.14174 -1.133929,-0.87407 z"
         style="fill:#000000;fill-opacity:1;fill-rule:evenodd;stroke:#000000;stroke-width:0.26458332px;stroke-linecap:butt;stroke-linejoin:miter;stroke-opacity:1" />
      <path
         inkscape:connector-curvature="0"
         id="path4832"
         d="m 15.331659,278.26661 0.118118,-1.01587 -0.33073,-0.54334 -0.448846,0.18899 0.425223,-0.73233 -0.566964,-0.37797 0.04725,-0.8977 0.803199,-0.51971 1.063058,0.28348 0.212612,0.14174 1.559152,0.23623 -0.8032,0.37798 0.283482,1.15755 -0.283482,0.35436 -0.259858,0.92131 -0.637835,0.0236 -0.09449,0.945 v 0 z"
         style="fill:#000000;fill-opacity:1;fill-rule:evenodd;stroke:none;stroke-width:0.26458332px;stroke-linecap:butt;stroke-linejoin:miter;stroke-opacity:1" />
      <path
         inkscape:connector-curvature="0"
         id="path4834"
         d="m 13.867001,277.58147 0.188988,-0.51971 -0.283482,-1.03944 -0.354352,-0.77957 0.165364,-0.8977 1.039435,-0.44884 0.496093,-0.18899 0.171271,0.33073 -0.661458,0.17717 -0.454753,0.37798 -0.165365,0.50791 0.206706,0.49018 0.348447,0.54925 0.01181,0.43703 -0.147647,0.68509 z"
         style="fill:#000000;fill-opacity:1;fill-rule:evenodd;stroke:none;stroke-width:0.26458332px;stroke-linecap:butt;stroke-linejoin:miter;stroke-opacity:1" />
    </g>
  </g>
</svg>
